<svg width="400" height="400" viewBox="0 0 400 400" fill="none" xmlns="http://www.w3.org/2000/svg">
<rect width="400" height="400" fill="#004DFF"/>
<path d="M81 131.742V269.349C160.172 316.144 230.432 223.888 318.553 269.349V131.742C236.016 84.3554 160.209 178.537 81 131.742ZM149.781 230.144V280.826C124.228 255.615 108.18 236.29 83.1448 208.524C105.924 187.903 127.594 171.984 149.781 145.662V179.462C172.005 175.686 194.23 168.171 216.417 161.914C194.193 185.053 171.968 209.449 149.781 230.107V230.144ZM249.772 255.466V221.666C227.548 225.442 205.323 232.958 183.136 239.177C205.36 216.039 227.585 191.642 249.772 170.985V120.303C275.362 146.18 290.819 159.027 316.408 186.237C297.142 205.488 273.143 232.402 249.772 255.466Z" fill="#D5E6FF"/>
</svg>
