<svg width="232" height="232" viewBox="0 0 232 232" fill="none" xmlns="http://www.w3.org/2000/svg">
<path d="M113.359 3.13833L49.8353 107.662C49.3371 108.482 48.1797 108.573 47.5617 107.84C41.9693 101.199 21.1348 72.95 46.9154 47.2023C70.4403 23.7076 100.405 6.95625 111.51 1.16667C112.77 0.509808 114.097 1.92503 113.359 3.13833Z" fill="#0080BC"/>
<path d="M109.846 230.72C111.114 231.608 112.676 230.094 111.827 228.802C97.6379 207.221 50.4718 135.416 43.9564 124.637C37.53 114.005 24.8902 96.336 23.8358 81.2192C23.7306 79.7101 21.6438 79.4037 21.1189 80.8229C20.2723 83.1117 19.3709 85.8435 18.5309 88.9642C7.92622 128.358 23.3275 170.161 56.7758 193.573L109.846 230.721V230.72Z" fill="#0080BC"/>
<path d="M118.571 228.861L182.095 124.338C182.593 123.518 183.751 123.427 184.369 124.16C189.961 130.8 210.796 159.05 185.015 184.798C161.49 208.292 131.526 225.044 120.421 230.833C119.161 231.49 117.834 230.075 118.571 228.861Z" fill="#0080BC"/>
<path d="M122.154 1.26572C120.886 0.378356 119.324 1.89166 120.174 3.18398C134.363 24.7651 181.529 96.5704 188.044 107.349C194.471 117.981 207.11 135.65 208.165 150.767C208.27 152.276 210.357 152.582 210.882 151.163C211.728 148.874 212.63 146.143 213.47 143.022C224.074 103.628 208.673 61.8255 175.225 38.413L122.154 1.26572Z" fill="#0080BC"/>
</svg>
